# xmcd
#
# Track frame offsets:
#	150
#	11921
#	27660
#	39634
#	53767
#	70345
#	85844
#	100514
#	116497
#	130397
#	149163
#	165101
#	182030
#	191258
#	207163
#	220264
#	235219
#	250265
#	264628
#	278782
#
# Disc length: 3882 seconds
#
# Revision: 1
# Processed by: cddbd v1.5.2PL0 Copyright (c) Steve Scherf et al.
# Submitted via: audiograbber 1.83.01
#
DISCID=240f2814
DTITLE=ZITO GALENO - VOL. 05
DYEAR=1900
DGENRE=
TTITLE0=FIQUEI TÃO TRISTE
TTITLE1=MAIS UM BOBO
TTITLE2=SARA
TTITLE3=SE VOCÊ FOSSE POR MIM
TTITLE4=MENINA VOCÊ SE FOI
TTITLE5=NÃO TEM PROBLEMA
TTITLE6=TRIBUTO A PAULO SÉRGIO
TTITLE7=CORNO DO LAR
TTITLE8=SE ERRER OUTRA VEZ
TTITLE9=DANÇARINA
TTITLE10=LEMBRANÇA DO REI
TTITLE11=MULHER TENTAÇÃO
TTITLE12=HUMILHADO NA SOLIDÃO
TTITLE13=EX-VENDEDOR
TTITLE14=MULHER DA VIDA
TTITLE15=AMOR DE VERÃO
TTITLE16=FEU QUERO ANOITE INTEIRA
TTITLE17=VEM MORENA
TTITLE18=FOGO DE AMOR
TTITLE19=O BRILHO DOS TEUS OLHOS
EXTD=
EXTT0=
EXTT1=
EXTT2=
EXTT3=
EXTT4=
EXTT5=
EXTT6=
EXTT7=
EXTT8=
EXTT9=
EXTT10=
EXTT11=
EXTT12=
EXTT13=
EXTT14=
EXTT15=
EXTT16=
EXTT17=
EXTT18=
EXTT19=
PLAYORDER=
